# xmcd
#
# Track frame offsets: 
#        150
#        16972
#        27948
#        37132
#        49443
#        68407
#        78831
#        93029
#        105298
#        118709
#        132852
#        151758
#
# Disc length: 2264 seconds
#
# Revision: 0
# Processed by: cddbd v1.5.2PL0 Copyright (c) Steve Scherf et al.
# Submitted via: ExactAudioCopy v0.95b3
#
DISCID=8708d60c
DTITLE=Bennie Jolink, Wim Smit, Inge te Boekhorst, Stef Geurtzen - Ker
DTITLE=kconcert
DYEAR=2006
DGENRE=Country
TTITLE0=Ies Kan Liehn
TTITLE1=Vanaovend Geet De Brand Derin
TTITLE2=Deliah
TTITLE3=Folsom Prison Blues
TTITLE4=Leagereschool
TTITLE5=Bachelor Till I Die
TTITLE6=Tear In My Beer
TTITLE7=Kampvuur Laait
TTITLE8=Sweet Chariot
TTITLE9=John Henry
TTITLE10=Klassieke Medley
TTITLE11=Old Dan Tucker
EXTD=
EXTT0=
EXTT1=
EXTT2=
EXTT3=
EXTT4=
EXTT5=
EXTT6=
EXTT7=
EXTT8=
EXTT9=
EXTT10=
EXTT11=
PLAYORDER=
